# xmcd
#
# Track frame offsets:
#	150
#	13807
#	35753
#	66559
#	101328
#	124732
#
# Disc length: 1991 seconds
#
# Revision: 0
# Processed by: cddbd v1.5.2PL0 Copyright (c) Steve Scherf et al.
# Submitted via: audiograbber 1.83.01
#
DISCID=5107c506
DTITLE=Tina More - Hed Kandi Promo - Touch Me
DYEAR=2010
DGENRE=Dance
TTITLE0=Touch Me (UK Radio Edit)
TTITLE1=Touch Me (Ali Payami Remix)
TTITLE2=Touch Me (eSquire Remix)
TTITLE3=Touch Me (Trilogy Project Remix)
TTITLE4=Touch Me (Nitra M Remix)
TTITLE5=Touch Me (Original Extended Mix)
EXTD=
EXTT0=
EXTT1=
EXTT2=
EXTT3=
EXTT4=
EXTT5=
PLAYORDER=
